# xmcd
#
# Track frame offsets: 
#        150
#        12968
#        26039
#        42860
#        54776
#        66462
#        80021
#        95985
#        108295
#        118788
#        130963
#        145564
#        158330
#        169802
#        182771
#        195059
#        205614
#        217757
#        228334
#        239638
#        250392
#        261923
#        275450
#        288105
#        301621
#        311989
#        324041
#
# Disc length: 4450 seconds
#
# Revision: 0
# Processed by: cddbd v1.5.2PL0 Copyright (c) Steve Scherf et al.
# Submitted via: ExactAudioCopy v1.0b3
#
DISCID=7011601b
DTITLE=Various Artist - 101 Country Hits CD2-4
DYEAR=2009
DGENRE=Country
TTITLE0=Anne Murray - He Thinks I Still Care
TTITLE1=Toni Williams - The One I Sing My Love Songs To
TTITLE2=The Warratahs - Maureen
TTITLE3=Del Reeves - Girl On A Billboard
TTITLE4=Sue Thompson - I Can't Stop Loving You
TTITLE5=Kenny Dale - Two Hearts Tangled In Love
TTITLE6=Billie Jo Spears - Blanket On The Ground
TTITLE7=Willie Nelson and Shirley Collie - Willingly
TTITLE8=The Everly Brothers - All I Have To Do Is Dream
TTITLE9=Roy Clark - The Tips Of My Fingers
TTITLE10=Kenny Rogers and Dottie West - (Hey, Wont You Play) Another Som
TTITLE10=ebody Done Somebody Wrong Song
TTITLE11=Bob Luman - The Great Snowman
TTITLE12=Patsy Cline - Walkin' After Midnight
TTITLE13=Ray Stevens - Misty
TTITLE14=Hamilton County Bluegrass Band - Carolina On My Mind
TTITLE15=Dave Dudley - Six Days On The Road
TTITLE16=Jeanne Black - He'll Have To Stay
TTITLE17=Charlie Louvin and Melba Montgomery - Something To Brag About
TTITLE18=Sonny James - Young Love
TTITLE19=Ferlin Husky - Gone
TTITLE20=Rusty And Doug Kershaw - Louisana Man
TTITLE21=Dottie West - A Lesson In Leavin'
TTITLE22=Leroy Van Dyke - The Auctioneer
TTITLE23=John Stewart - July You're A Woman
TTITLE24=Faron Young - Live Fast, Love Hard, Die Young
TTITLE25=The Tumbleweeds - Maple On The Hill
TTITLE26=Brendan Dugan - Mama Tried
EXTD=
EXTT0=
EXTT1=
EXTT2=
EXTT3=
EXTT4=
EXTT5=
EXTT6=
EXTT7=
EXTT8=
EXTT9=
EXTT10=
EXTT11=
EXTT12=
EXTT13=
EXTT14=
EXTT15=
EXTT16=
EXTT17=
EXTT18=
EXTT19=
EXTT20=
EXTT21=
EXTT22=
EXTT23=
EXTT24=
EXTT25=
EXTT26=
PLAYORDER=
